# xmcd CD database file generated by Grip 3.2.0
# 
# Track frame offsets:
#       150
#       13397
#       23025
#       33860
#       46110
#       54817
#       71410
#       76482
#       88167
#       101547
#       115217
#       125682
# 
# Disc length: 2066 seconds
# 
# Revision: 4
# Processed by: cddbd v1.5.1PL0 Copyright (c) Steve Scherf et al.
# Submitted via: Grip 3.2.0
# 
DISCID=9208100c
DTITLE=Various Artist - Holiday Jazz
DYEAR=1996
DGENRE=Jazz
TTITLE0=Louis Armstrong and The Commanders - Cool Yule
TTITLE1=June Christy - The Merriest
TTITLE2=Bing Crosby - Winter WOnderland
TTITLE3=Dean Martin - I've Got My Love To Keep Me Warm
TTITLE4=Peggy Lee - Happy Holiday
TTITLE5=Lou Rawls - Have Yourself A Merry Little Christmas
TTITLE6=Nat "King" Cole - Deck the Hall
TTITLE7=Lena Horne - Jingle All The Way
TTITLE8=Ella Fitzgerald - SLeigh Ride
TTITLE9=Benny Goodman and His Orchestra - WInter Weather
TTITLE10=Nancy Wilson - That's What I Want For Christmas
TTITLE11=Les Brown and His Band Of Renown - The Nutcracker Suite
EXTD=YEAR: 1996
EXTT0=
EXTT1=
EXTT2=
EXTT3=
EXTT4=
EXTT5=
EXTT6=
EXTT7=
EXTT8=
EXTT9=
EXTT10=
EXTT11=
PLAYORDER=
